PathFileType   4   (X/Y/Z)
DataRate	CameraRate	NumFrames	NumMarkers	Units	OrigDataRate	OrigDataStartFrame	OrigNumFrames
120.0	120.0	9	37	mm	120.0	41	161
Frame#	Time	midhip	hip_r	hip_l	knee_r	knee_l	ankle_r	ankle_l	midasis	asis_r	asis_l	psis_r	psis_l	epicondLat_r	epicondLat_l	epicondMed_r	epicondMed_l	malleolusLat_r	malleolusLat_l	malleolusMedv_r	malleolusMedv_l	neck	subclavicle_r	subclavicle_l	sternalnotch	xyphoidprocess	thighwand_r	thighwand_l	upperleg1_r	upperleg1_l	upperleg2_r	upperleg2_l	shankwand_r	shankwand_l	lowerleg1_r	lowerleg1_l	toe_r	toe_l
 	 	X1	Y1	Z1	X2	Y2	Z2	X3	Y3	Z3	X4	Y4	Z4	X5	Y5	Z5	X6	Y6	Z6	X7	Y7	Z7	X8	Y8	Z8	X9	Y9	Z9	X10	Y10	Z10	X11	Y11	Z11	X12	Y12	Z12	X13	Y13	Z13	X14	Y14	Z14	X15	Y15	Z15	X16	Y16	Z16	X17	Y17	Z17	X18	Y18	Z18	X19	Y19	Z19	X20	Y20	Z20	X21	Y21	Z21	X22	Y22	Z22	X23	Y23	Z23	X24	Y24	Z24	X25	Y25	Z25	X26	Y26	Z26	X27	Y27	Z27	X28	Y28	Z28	X29	Y29	Z29	X30	Y30	Z30	X31	Y31	Z31	X32	Y32	Z32	X33	Y33	Z33	X34	Y34	Z34	X35	Y35	Z35	X36	Y36	Z36	X37	Y37	Z37

	41	0.60833	1585.366	840.097	-281.951	1590.849	825.445	-218.794	1581.432	820.929	-335.801	1737.103	474.041	-185.917	1566.489	464.030	-314.122	1683.872	84.802	-173.349	1458.300	69.106	-304.635	1643.657	904.912	-279.098	1643.270	907.395	-178.790	1644.043	902.430	-379.407	1485.739	928.385	-250.969	1485.361	929.703	-305.403	1741.355	480.901	-131.513	1583.232	460.187	-365.844	1733.397	464.607	-240.216	1544.172	453.649	-276.152	1670.897	87.743	-137.220	1469.009	65.289	-341.419	1705.497	98.122	-201.257	1474.066	79.253	-276.555	1543.629	1343.158	-271.469	1640.405	1268.328	-221.164	1640.784	1266.001	-328.969	1626.181	1278.500	-280.412	1674.661	1109.979	-275.687	1800.172	686.375	-195.865	1699.538	620.660	-289.408	1712.463	703.908	-152.055	1644.785	664.185	-362.222	1737.815	622.334	-148.912	1637.629	576.666	-353.013	1676.462	213.126	-72.642	1477.414	180.749	-416.875	1684.863	217.734	-113.409	1481.072	187.867	-374.172	1790.296	64.577	-130.155	1584.863	37.501	-292.810
	42	0.61667	1589.973	840.097	-281.640	1595.590	825.157	-218.315	1585.630	820.645	-335.277	1742.151	473.637	-186.837	1568.480	463.807	-313.978	1699.672	82.852	-173.331	1458.473	69.288	-304.527	1648.125	904.621	-278.861	1648.203	907.102	-178.515	1648.046	902.141	-379.208	1490.332	928.048	-249.756	1489.624	929.516	-304.037	1746.874	480.475	-132.468	1585.066	459.920	-365.747	1737.997	464.048	-240.532	1546.253	453.596	-275.787	1686.901	85.492	-137.107	1469.070	65.452	-341.341	1721.050	96.874	-201.551	1474.626	79.324	-276.485	1548.389	1342.790	-271.238	1645.082	1267.915	-220.862	1645.396	1265.532	-328.653	1630.811	1278.068	-280.105	1679.142	1109.502	-275.315	1804.822	685.810	-197.254	1702.435	619.652	-289.470	1717.549	703.476	-152.655	1647.614	663.517	-362.278	1743.051	621.987	-149.598	1640.096	576.191	-352.986	1689.520	211.073	-72.716	1477.833	181.014	-416.763	1697.519	215.759	-113.560	1481.516	188.009	-374.089	1807.090	65.065	-131.531	1584.867	37.509	-292.844
	43	0.62500	1594.530	839.957	-281.244	1600.361	824.830	-217.825	1589.852	820.345	-334.740	1747.051	473.144	-187.779	1570.575	463.558	-313.821	1715.236	81.101	-173.432	1458.682	69.485	-304.425	1652.615	904.306	-278.600	1653.166	906.765	-178.219	1652.064	901.847	-378.981	1494.950	927.668	-248.507	1493.908	929.312	-302.615	1752.213	479.939	-133.445	1586.981	459.634	-365.645	1742.075	463.327	-240.927	1548.401	453.625	-275.396	1702.651	83.451	-137.123	1469.162	65.630	-341.270	1736.284	95.688	-201.840	1473.959	79.809	-276.361	1553.264	1342.391	-270.952	1649.784	1267.474	-220.496	1650.026	1265.020	-328.287	1635.485	1277.604	-279.769	1683.567	1108.974	-274.869	1809.422	685.054	-198.538	1705.501	618.689	-289.552	1722.559	702.902	-153.215	1650.671	663.030	-362.207	1748.030	621.379	-150.261	1642.675	575.641	-352.892	1702.311	209.152	-72.886	1478.296	181.298	-416.648	1709.936	213.816	-113.892	1482.029	188.120	-374.023	1823.521	65.703	-133.033	1584.868	37.526	-292.878
	44	0.63333	1599.086	839.780	-280.786	1605.162	824.467	-217.314	1594.095	820.024	-334.179	1751.820	472.577	-188.756	1572.778	463.278	-313.653	1730.517	79.563	-173.633	1458.924	69.699	-304.327	1657.125	903.964	-278.308	1658.155	906.387	-177.898	1656.096	901.541	-378.719	1499.589	927.247	-247.223	1498.213	929.083	-301.140	1757.391	479.306	-134.454	1588.981	459.324	-365.538	1745.925	462.384	-241.202	1550.716	453.640	-275.133	1718.117	81.636	-137.244	1469.282	65.829	-341.205	1750.835	94.514	-202.273	1473.282	80.246	-276.251	1558.172	1341.867	-270.588	1654.509	1266.992	-220.129	1654.671	1264.476	-327.919	1640.203	1277.105	-279.408	1688.091	1108.426	-274.435	1813.972	684.111	-199.727	1708.734	617.769	-289.655	1727.531	702.095	-153.684	1653.952	662.624	-361.994	1752.877	620.584	-150.822	1645.417	575.135	-352.806	1714.855	207.378	-73.133	1478.806	181.605	-416.530	1721.997	212.017	-114.407	1482.645	188.312	-373.934	1839.547	66.490	-134.632	1584.870	37.549	-292.915
	45	0.64167	1603.702	839.631	-280.275	1609.988	824.066	-216.772	1598.356	819.679	-333.584	1756.471	471.951	-189.769	1575.096	462.969	-313.474	1745.458	78.244	-173.923	1459.196	69.935	-304.231	1661.655	903.594	-277.979	1663.170	905.970	-177.547	1660.139	901.218	-378.410	1504.249	926.789	-245.905	1502.537	928.823	-299.617	1762.428	478.591	-135.498	1591.075	458.998	-365.428	1749.324	461.286	-241.402	1553.089	453.566	-275.293	1733.262	80.053	-137.451	1469.428	66.050	-341.142	1765.060	93.721	-202.878	1473.434	80.465	-276.221	1563.012	1341.330	-270.214	1659.336	1266.499	-219.758	1659.383	1263.923	-327.582	1644.958	1276.566	-279.029	1692.821	1107.895	-274.030	1818.472	682.996	-200.837	1712.115	616.879	-289.778	1732.504	701.132	-154.087	1657.396	662.268	-361.716	1757.546	619.641	-151.312	1648.296	574.675	-352.838	1727.176	205.757	-73.440	1479.362	181.938	-416.406	1733.754	210.491	-114.875	1483.300	188.658	-373.812	1855.131	67.425	-136.310	1584.878	37.576	-292.955
	46	0.65000	1608.583	839.767	-279.806	1614.842	823.629	-216.189	1602.639	819.305	-332.945	1761.015	471.276	-190.820	1577.537	462.637	-313.288	1759.997	77.137	-174.292	1459.492	70.201	-304.128	1666.204	903.193	-277.604	1668.211	905.516	-177.163	1664.197	900.871	-378.046	1508.934	926.293	-244.557	1506.882	928.526	-298.057	1767.344	477.807	-136.578	1593.276	458.662	-365.314	1752.495	460.136	-241.811	1555.478	453.554	-275.475	1748.042	78.701	-137.728	1469.594	66.300	-341.074	1778.929	93.036	-203.517	1473.925	80.673	-276.244	1567.830	1340.827	-269.799	1664.219	1265.959	-219.353	1664.139	1263.323	-327.199	1649.747	1275.991	-278.633	1697.578	1107.312	-273.588	1822.925	681.735	-201.888	1715.612	616.002	-289.915	1737.373	700.099	-154.472	1660.934	661.911	-361.491	1762.076	618.473	-151.843	1651.234	574.233	-352.909	1739.289	204.295	-73.791	1479.965	182.301	-416.273	1745.377	209.115	-115.252	1483.997	189.050	-373.690	1870.236	68.505	-138.057	1584.893	37.606	-292.999
	47	0.65833	1613.617	840.032	-279.327	1619.727	823.158	-215.564	1606.956	818.901	-332.262	1765.461	470.563	-191.906	1580.100	462.293	-313.091	1774.080	76.225	-174.733	1459.809	70.505	-304.014	1670.780	902.764	-277.182	1673.277	905.026	-176.739	1668.284	900.502	-377.624	1513.650	925.761	-243.186	1511.260	928.189	-296.482	1772.155	476.967	-137.692	1595.589	458.325	-365.192	1755.565	459.012	-242.595	1558.569	453.117	-275.151	1762.414	77.567	-138.068	1469.775	66.589	-340.995	1792.273	92.407	-204.162	1474.386	80.941	-276.233	1572.420	1340.351	-269.287	1669.092	1265.362	-218.968	1668.937	1262.642	-326.748	1654.574	1275.388	-278.217	1702.452	1106.681	-273.068	1827.336	680.359	-202.900	1719.193	615.122	-290.054	1742.124	698.944	-154.796	1664.088	661.285	-361.361	1766.495	617.128	-152.457	1654.201	573.758	-352.924	1751.193	202.993	-74.171	1480.610	182.700	-416.129	1756.788	207.862	-115.674	1484.771	189.397	-373.584	1884.826	69.725	-139.867	1584.918	37.638	-293.046
	48	0.66667	1618.418	839.982	-278.882	1624.653	822.650	-214.902	1611.325	818.470	-331.540	1769.816	469.822	-193.018	1582.779	461.946	-312.879	1787.651	75.483	-175.245	1460.147	70.858	-303.884	1675.394	902.309	-276.709	1678.370	904.505	-176.274	1672.418	900.114	-377.144	1518.408	925.197	-241.800	1515.695	927.790	-294.950	1776.876	476.087	-138.834	1598.016	457.995	-365.056	1758.399	457.897	-243.661	1562.825	451.924	-274.494	1776.327	76.628	-138.465	1469.973	66.925	-340.901	1805.239	92.124	-204.850	1474.706	81.321	-276.154	1576.896	1339.846	-268.771	1673.967	1264.780	-218.586	1673.762	1261.939	-326.319	1659.444	1274.767	-277.775	1707.469	1106.073	-272.501	1831.715	678.902	-203.901	1722.828	614.230	-290.184	1746.854	697.692	-155.131	1666.729	660.385	-361.310	1770.796	615.670	-153.166	1657.333	573.295	-352.937	1762.864	201.846	-74.570	1481.294	183.141	-415.971	1767.858	206.769	-116.143	1485.610	189.726	-373.450	1898.866	71.071	-141.744	1584.954	37.673	-293.097
	49	0.67500	1623.021	839.589	-278.423	1629.629	822.110	-214.208	1615.767	818.013	-330.787	1774.085	469.059	-194.141	1585.569	461.606	-312.651	1800.657	74.874	-175.826	1460.516	71.269	-303.741	1680.057	901.834	-276.188	1683.494	903.955	-175.768	1676.620	899.713	-376.608	1523.215	924.611	-240.410	1520.222	927.314	-293.514	1781.525	475.181	-139.992	1600.557	457.677	-364.902	1761.218	456.787	-244.965	1566.794	450.984	-274.126	1789.727	75.852	-138.923	1470.194	67.323	-340.795	1817.523	91.886	-205.642	1475.044	81.757	-276.045	1581.676	1339.224	-268.290	1678.897	1264.195	-218.116	1678.615	1261.264	-325.882	1664.357	1274.136	-277.301	1712.445	1105.461	-271.942	1836.072	677.392	-204.921	1726.510	613.326	-290.293	1751.520	696.359	-155.551	1669.788	659.643	-361.187	1775.007	614.145	-153.991	1660.629	572.798	-352.934	1774.266	200.844	-74.983	1482.011	183.630	-415.794	1778.673	205.770	-116.621	1486.492	190.087	-373.247	1912.318	72.518	-143.692	1585.000	37.710	-293.150
